<svg xmlns="http://www.w3.org/2000/svg" viewBox="0 0 26 26"><path d="M13,20.78A7.78,7.78,0,1,1,20.78,13,7.78,7.78,0,0,1,13,20.78ZM15.22,13A2.22,2.22,0,1,0,13,15.22,2.21,2.21,0,0,0,15.22,13ZM6.33,14.67H3V11.33H6.33Zm16.67,0H19.67V11.33H23Zm-16.67,0H3V11.33H6.33Zm16.67,0H19.67V11.33H23ZM9.46,18.89,7.11,21.25,4.75,18.89l2.36-2.35ZM21.25,7.11,18.89,9.46,16.54,7.11l2.35-2.36ZM14.67,19.67V23H11.33V19.67ZM14.67,3V6.33H11.33V3Zm4.22,13.54,2.36,2.35-2.36,2.36-2.35-2.36ZM7.11,4.75,9.46,7.11,7.11,9.46,4.75,7.11Z"/></svg>