<svg xmlns="http://www.w3.org/2000/svg" viewBox="0 0 1280 303.28"><defs><style>.a{fill:#023b6e;}.b{fill:#b5562a;}.c{fill:#f2f2f2;}.d{fill:#e8526e;}.e{fill:#051548;}.f{fill:#0f6591;}.g{fill:#b27e4b;}.h{fill:#b3a76f;}.i{fill:#b4a26f;}.j{fill:#09386c;}</style></defs><title>Banner 4 (Blend Mode Flattened)</title><rect class="a" width="1280" height="303.28"/><path class="b" d="M480,236.8c55.14-.75,117.06-2.2,183.09-3.93-39.88,4.9-77,9-105.85,10.58C532.44,242.12,506.6,239.82,480,236.8Z"/><path class="c" d="M454.9,120.37A12.33,12.33,0,0,0,443,112.16a14,14,0,0,0-10.31,4,13,13,0,0,0-3.9,9.41,9.68,9.68,0,0,0,2.8,7c2.2,2.4,5,3.5,8,5.21l3.3,1.8c4.11,2.3,7.61,3.8,10.22,6.51a13.21,13.21,0,0,1,4,10.11,20.31,20.31,0,0,1-6.21,14.92c-5.2,5-11.11,5.81-16.62,5.81-5,0-9.51-1-13.41-4.91a21.81,21.81,0,0,1-5.21-9.41l4-1.8a18.85,18.85,0,0,0,4.41,8,14.3,14.3,0,0,0,10.41,4.1c4.71,0,9.92-1.3,13.22-4.4a15.42,15.42,0,0,0,4.61-11.62,10.38,10.38,0,0,0-3.21-8.11c-2.5-2.5-6.21-4.1-9-5.61l-4.61-2.5a35.21,35.21,0,0,1-7.51-5.51,12.65,12.65,0,0,1-3.8-9.41,16.94,16.94,0,0,1,5.11-12.21,19.14,19.14,0,0,1,13.91-5.41c6.41,0,12.52,2.9,15.22,9.51Z"/><path class="c" d="M506.77,113.07l-7.71,62.78h-4.41l7.71-62.78H485l.5-4h39.05l-.5,4Z"/><path class="c" d="M586.58,113.07H558.94l-3,24.23h27l-.5,4h-27l-3.71,30.54h27.64l-.5,4h-32L555,109.06h32Z"/><path class="c" d="M625.93,109.06l-7.71,62.78h18.62l-.5,4h-23l8.21-66.79Z"/><path class="c" d="M679.4,109.06l-7.71,62.78h18.63l-.51,4h-23L675,109.06Z"/><path class="c" d="M759.71,153.92H731.27l-11.61,21.93h-5l36.55-68.79,19.32,68.79h-4.61Zm-1.1-4L750,118.27l-16.62,31.64Z"/><path class="d" d="M814.28,175.85l24.33-28.14c1.7-2,6.21-7.31,7.81-9.71,3-4.31,3.71-7.51,3.71-10.22,0-7.51-5.41-13-13.32-13a12.83,12.83,0,0,0-11.11,5.9,14.77,14.77,0,0,0-2.21,7.91h-7.41c.3-6.7,2.41-10.81,5-13.81,2.8-3.21,7.51-6.81,15.82-6.81,11.81,0,20.63,8.41,20.63,19.92,0,4.51-1.31,8.61-5.31,14.32-2.8,3.91-6.41,8-9.11,11.12L829.2,169h28.24v6.81Z"/><polygon class="c" points="873.37 97.15 878.68 97.77 873.37 98.39 872.74 106.72 872.1 98.39 866.79 97.77 872.1 97.15 872.74 88.82 873.37 97.15"/><polygon class="c" points="872.65 96.77 876.19 93.61 873.83 97.54 876.72 101.09 872.78 98.47 869.24 101.62 871.6 97.69 868.72 94.14 872.65 96.77"/><polygon class="c" points="794.77 168.73 800.08 169.35 794.77 169.97 794.13 178.3 793.49 169.97 788.18 169.35 793.49 168.73 794.13 160.4 794.77 168.73"/><polygon class="c" points="794.05 168.35 797.58 165.2 795.23 169.12 798.11 172.67 794.17 170.05 790.64 173.2 792.99 169.27 790.11 165.72 794.05 168.35"/><polygon class="c" points="883.06 134.57 885.82 134.89 883.06 135.21 882.73 139.54 882.4 135.21 879.64 134.89 882.4 134.57 882.73 130.24 883.06 134.57"/><polygon class="c" points="882.69 134.15 884.53 132.51 883.3 134.56 884.8 136.4 882.75 135.04 880.91 136.68 882.14 134.63 880.64 132.79 882.69 134.15"/><polygon class="c" points="802.26 183.98 805.02 184.3 802.26 184.62 801.93 188.95 801.6 184.62 798.84 184.3 801.6 183.98 801.93 179.65 802.26 183.98"/><polygon class="c" points="801.89 183.56 803.73 181.93 802.5 183.97 804 185.81 801.95 184.45 800.12 186.09 801.34 184.04 799.84 182.2 801.89 183.56"/><polygon class="c" points="867.45 119.87 871.55 120.48 867.45 121.08 866.95 129.24 866.46 121.08 862.36 120.48 866.46 119.87 866.95 111.72 867.45 119.87"/><polygon class="c" points="874.08 111.56 875.95 111.78 874.08 111.99 873.85 114.87 873.63 111.99 871.75 111.78 873.63 111.56 873.85 108.68 874.08 111.56"/><polygon class="c" points="877.98 117.72 879.24 117.86 877.98 118.01 877.82 119.95 877.67 118.01 876.41 117.86 877.67 117.72 877.82 115.78 877.98 117.72"/><polygon class="c" points="808.05 175.22 809.31 175.36 808.05 175.51 807.9 177.45 807.75 175.51 806.49 175.36 807.75 175.22 807.9 173.28 808.05 175.22"/><path class="e" d="M0,259.18c154.23,4.16,308,2,464.88-8.57Q862.61,280.82,1280,281.18v22.1H0Z"/><path class="f" d="M1280,274.18c-244.48-2.21-485.49-11.45-722.81-30.73q52.62-4.62,105.85-10.58,302-8.35,617-28.69Z"/><path class="g" d="M1280,204.18q-314.68,20.08-617,28.69c196.6-22,400.08-58,617-111.69Z"/><path class="h" d="M1280,274.18v7q-417.34-.45-815.12-30.57,46-3.09,92.31-7.16C794.51,262.73,1035.52,272,1280,274.18Z"/><path class="e" d="M480,236.8q38.53,3.51,77.22,6.65-46.37,4.08-92.31,7.16Q390.62,245,317.05,238.28,398,238.06,480,236.8Z"/><path class="g" d="M480,236.8q-82,1.24-162.92,1.48Q156.88,223.73,0,204.18v-27C158.2,202.55,318.22,222.11,480,236.8Z"/><path class="i" d="M317.05,238.28q73.56,6.71,147.83,12.33C308,261.17,154.23,263.34,0,259.18v-24Q156.29,238.81,317.05,238.28Z"/><path class="j" d="M317.05,238.28q-160.73.5-317-3.1v-31Q156.87,223.73,317.05,238.28Z"/></svg>